HIERARCHY
ROOT hip
{
  OFFSET 0 0 0
  CHANNELS 6 Xposition Yposition Zposition Zrotation Yrotation Xrotation
  JOINT abdomen
  {
    OFFSET 0 20.6881 -0.73152
    CHANNELS 3 Zrotation Xrotation Yrotation
    JOINT chest
    {
      OFFSET 0 11.7043 -0.48768
      CHANNELS 3 Zrotation Xrotation Yrotation
      JOINT neck
      {
        OFFSET 0 22.1894 -2.19456
        CHANNELS 3 Zrotation Xrotation Yrotation
        JOINT head
        {
          OFFSET -0.24384 7.07133 1.2192
          CHANNELS 3 Zrotation Xrotation Yrotation
          JOINT leftEye
          {
            OFFSET 4.14528 8.04674 8.04672
            CHANNELS 3 Zrotation Xrotation Yrotation
            End Site
            {
              OFFSET 1 0 0
            }
          }
          JOINT rightEye
          {
            OFFSET -3.6576 8.04674 8.04672
            CHANNELS 3 Zrotation Xrotation Yrotation
            End Site
            {
              OFFSET 1 0 0
            }
          }
        }
      }
      JOINT rCollar
      {
        OFFSET -2.68224 19.2634 -4.8768
        CHANNELS 3 Zrotation Xrotation Yrotation
        JOINT rShldr
        {
          OFFSET -8.77824 -1.95073 1.46304
          CHANNELS 3 Zrotation Xrotation Yrotation
          JOINT rForeArm
          {
            OFFSET -28.1742 -1.7115 0.48768
            CHANNELS 3 Zrotation Xrotation Yrotation
            JOINT rHand
            {
              OFFSET -22.5879 0.773209 7.07136
              CHANNELS 3 Zrotation Xrotation Yrotation
              JOINT rThumb1
              {
                OFFSET -1.2192 -0.487915 3.41376
                CHANNELS 3 Zrotation Xrotation Yrotation
                JOINT rThumb2
                {
                  OFFSET -3.37035 -0.52449 3.41376
                  CHANNELS 3 Zrotation Xrotation Yrotation
                  End Site
                  {
                    OFFSET -1.78271 -1.18214 1.43049
                  }
                }
              }
              JOINT rIndex1
              {
                OFFSET -7.75947 0.938293 5.60832
                CHANNELS 3 Zrotation Xrotation Yrotation
                JOINT rIndex2
                {
                  OFFSET -2.54057 -0.884171 1.56538
                  CHANNELS 3 Zrotation Xrotation Yrotation
                  End Site
                  {
                    OFFSET -1.62519 -0.234802 1.16502
                  }
                }
              }
              JOINT rMid1
              {
                OFFSET -8.24714 1.18213 3.41376
                CHANNELS 3 Zrotation Xrotation Yrotation
                JOINT rMid2
                {
                  OFFSET -3.10165 -0.590103 1.0647
                  CHANNELS 3 Zrotation Xrotation Yrotation
                  End Site
                  {
                    OFFSET -2.48547 -0.328903 0.83742
                  }
                }
              }
              JOINT rRing1
              {
                OFFSET -8.82822 0.546677 1.51678
                CHANNELS 3 Zrotation Xrotation Yrotation
                JOINT rRing2
                {
                  OFFSET -2.60934 -0.819778 -0.0198488
                  CHANNELS 3 Zrotation Xrotation Yrotation
                  End Site
                  {
                    OFFSET -2.33842 -0.294052 0.168128
                  }
                }
              }
              JOINT rPinky1
              {
                OFFSET -8.27202 -0.0477905 -0.4584
                CHANNELS 3 Zrotation Xrotation Yrotation
                JOINT rPinky2
                {
                  OFFSET -1.82734 -0.647385 -0.700984
                  CHANNELS 3 Zrotation Xrotation Yrotation
                  End Site
                  {
                    OFFSET -1.69225 -0.51767 -0.607171
                  }
                }
              }
            }
          }
        }
      }
      JOINT lCollar
      {
        OFFSET 2.68224 19.2634 -4.8768
        CHANNELS 3 Zrotation Xrotation Yrotation
        JOINT lShldr
        {
          OFFSET 8.77824 -1.95073 1.46304
          CHANNELS 3 Zrotation Xrotation Yrotation
          JOINT lForeArm
          {
            OFFSET 28.1742 -1.7115 0.48768
            CHANNELS 3 Zrotation Xrotation Yrotation
            JOINT lHand
            {
              OFFSET 22.5879 0.773209 7.07136
              CHANNELS 3 Zrotation Xrotation Yrotation
              JOINT lThumb1
              {
                OFFSET 1.2192 -0.487915 3.41376
                CHANNELS 3 Zrotation Xrotation Yrotation
                JOINT lThumb2
                {
                  OFFSET 3.37035 -0.52449 3.41376
                  CHANNELS 3 Zrotation Xrotation Yrotation
                  End Site
                  {
                    OFFSET 1.78271 -1.18214 1.43049
                  }
                }
              }
              JOINT lIndex1
              {
                OFFSET 7.75947 0.938293 5.60832
                CHANNELS 3 Zrotation Xrotation Yrotation
                JOINT lIndex2
                {
                  OFFSET 2.54057 -0.884171 1.56538
                  CHANNELS 3 Zrotation Xrotation Yrotation
                  End Site
                  {
                    OFFSET 1.62519 -0.234802 1.16502
                  }
                }
              }
              JOINT lMid1
              {
                OFFSET 8.24714 1.18213 3.41376
                CHANNELS 3 Zrotation Xrotation Yrotation
                JOINT lMid2
                {
                  OFFSET 3.10165 -0.590103 1.0647
                  CHANNELS 3 Zrotation Xrotation Yrotation
                  End Site
                  {
                    OFFSET 2.48547 -0.328903 0.83742
                  }
                }
              }
              JOINT lRing1
              {
                OFFSET 8.82822 0.546677 1.51678
                CHANNELS 3 Zrotation Xrotation Yrotation
                JOINT lRing2
                {
                  OFFSET 2.60934 -0.819778 -0.0198488
                  CHANNELS 3 Zrotation Xrotation Yrotation
                  End Site
                  {
                    OFFSET 2.33842 -0.294052 0.168128
                  }
                }
              }
              JOINT lPinky1
              {
                OFFSET 8.27202 -0.0477905 -0.4584
                CHANNELS 3 Zrotation Xrotation Yrotation
                JOINT lPinky2
                {
                  OFFSET 1.82734 -0.647385 -0.700984
                  CHANNELS 3 Zrotation Xrotation Yrotation
                  End Site
                  {
                    OFFSET 1.69225 -0.51767 -0.607171
                  }
                }
              }
            }
          }
        }
      }
    }
  }
  JOINT rButtock
  {
    OFFSET -8.77824 4.35084 1.2192
    CHANNELS 3 Zrotation Xrotation Yrotation
    JOINT rThigh
    {
      OFFSET 0 -1.70687 -2.19456
      CHANNELS 3 Zrotation Xrotation Yrotation
      JOINT rShin
      {
        OFFSET 0 -36.8199 0.73152
        CHANNELS 3 Zrotation Xrotation Yrotation
        JOINT rFoot
        {
          OFFSET 0.73152 -45.1104 -5.12064
          CHANNELS 3 Zrotation Xrotation Yrotation
          End Site
          {
            OFFSET -1.1221 -3.69964 12.103
          }
        }
      }
    }
  }
  JOINT lButtock
  {
    OFFSET 8.77824 4.35084 1.2192
    CHANNELS 3 Zrotation Xrotation Yrotation
    JOINT lThigh
    {
      OFFSET 0 -1.70687 -2.19456
      CHANNELS 3 Zrotation Xrotation Yrotation
      JOINT lShin
      {
        OFFSET 0 -36.8199 0.73152
        CHANNELS 3 Zrotation Xrotation Yrotation
        JOINT lFoot
        {
          OFFSET -0.73152 -45.1104 -5.12064
          CHANNELS 3 Zrotation Xrotation Yrotation
          End Site
          {
            OFFSET 1.1221 -3.69964 12.103
          }
        }
      }
    }
  }
}
MOTION
Frames:	4
Frame Time:	0.03333
0.2071 71.11880000000001 0.1475 -165.47544 84.138273 -160.620612 -4.14606 3.465181 -0.0 5.545177 -4.770002 -1.738946 -6.309623 32.690689 -163.964576 -11.553075 21.135988 136.186277 -0.005354 0.0 -6.9e-05 0.000889 -0.0 -0.000981 -9.650607 34.836503 11.197976 71.594548 4.900453 23.526505 -10.737915 -4.228757 33.542585 -2.055733 4.586017 -0.383193 -5.762836 5.575594 1.158065 -122.035561 -16.258156 108.39414 12.216438 -21.784721 -5.120619 72.930619 -56.728904 22.524982 7.903729 -24.807655 -3.014013 -120.341189 56.977221 110.241241 -75.372648 -72.122529 -92.515104 -150.976568 -0.72368 176.512442 -9.25637 -19.387926 -8.750939 -145.888335 8.237282 -142.774062 155.548494 -3.80462 -161.898883 -126.028123 -20.53669 179.611799 100.481058 28.16837 -61.551652 -49.807173 -61.821119 -38.637787 171.603214 -9.286403 -89.949409 121.925625 13.319598 -57.727606 -37.216282 -57.917675 0.643755 178.728647 -43.70681 -106.624088 166.118891 -24.039375 -145.079635 5.162022 21.243122 -4.803325 -0.00129 0.064051 -0.018653 154.240109 12.766189 -170.103155 138.442795 -6.228996 135.65788 161.977628 55.918852 146.785276 0.0 -0.000622 0.000727 -8.598608 -23.252419 0.0 -15.104467 37.757364 -54.428826 143.296963 10.702114 -43.180842 0.0 0.00104 -0.001803 5.321515 -15.153565 1.497133 7.834955 44.264993 133.747698 -29.640138 -9.458021 -129.81734
0.21020000000000003 71.11840000000001 0.1625 -165.672637 84.11435 -160.868396 -1.672989 0.950519 -91.881388 2.248689 3.041708 90.16923 -15.811563 24.145654 -86.927753 10.82445 25.046841 59.462375 0.002711 0.0 0.003777 0.0053 -0.0 -0.003559 0.070861 -0.42783 -0.094695 71.635329 7.598101 -9.763264 176.485215 -1.314947 108.520855 171.680878 -15.407458 143.873975 -0.543164 0.536567 0.085633 9.883908 -13.815274 -7.334161 10.748166 -19.047611 -4.726461 88.012192 -60.465895 34.65719 -36.036307 51.723164 29.832044 -155.776915 15.55941 139.813649 -0.000423 -0.060806 -0.019369 -156.138152 -14.440936 173.561269 -29.629347 -40.967723 -28.619628 -8.133124 -23.959484 -10.511949 147.865286 28.559905 -152.690046 142.527983 54.994092 -82.660532 166.411851 67.905361 137.217742 7.511432 33.108269 -2.318159 -114.538597 -50.244674 -55.721038 116.197131 33.094501 -71.314711 90.225395 41.071293 -75.796458 167.463791 -15.627866 -114.847866 89.835254 60.701475 -81.262679 42.132886 58.435075 -36.400672 -0.000602 -0.018612 0.005183 -6.147756 33.722936 -5.589788 153.205324 41.295259 148.284654 175.297066 74.091283 140.885786 -0.003236 9.8e-05 -0.001618 -8.146231 -23.275397 -19.913037 -15.759762 32.902044 76.045646 -158.012025 -9.903297 67.740035 179.993164 75.748423 0.004677 -170.64799 57.974709 161.405693 -2.275865 -40.257464 -106.737151 -108.358109 27.16355 12.924637
0.21180000000000002 71.1179 0.1818 -165.839029 84.083859 -161.096528 -1.650084 0.414628 -104.101208 1.106619 3.250413 102.812593 5.974349 22.658702 103.602358 -11.002581 -2.016768 -132.817517 0.002225 -0.0 -0.004628 0.000604 0.0 0.000288 -155.716651 -4.925232 162.135944 -140.234657 70.33579 86.305249 -4.83899 81.269509 43.943568 -7.572086 21.556885 0.492947 -174.302005 -11.966234 89.865026 -138.288658 11.045537 70.220925 -166.820302 -43.973959 122.06264 -60.828643 57.050924 47.337784 -82.840959 61.11186 74.532011 -163.560222 -6.240445 143.314277 -145.118603 0.185931 -179.18566 -148.1006 -43.125863 -170.569717 -139.225073 -4.396937 -136.390508 -146.27707 8.961505 -141.091508 158.468106 -30.055656 -166.91947 40.437871 26.70011 28.027016 -40.510409 -20.055954 72.855045 -173.406445 0.626472 -147.121577 177.746684 -15.324472 -89.570906 77.873619 8.681402 -24.562436 153.453041 -21.067582 -121.745046 8.820529 33.239057 -0.980385 164.636709 -19.283631 -144.734568 -3.116044 0.172134 -0.377627 2.3e-05 -0.018405 0.006512 155.447086 -1.618782 -172.042559 -12.252091 41.424847 -10.282144 25.084153 -41.099049 25.14782 179.999968 75.750223 -0.0 167.409652 51.688631 8.939582 -19.48742 38.239762 -64.836003 -0.742281 -53.388374 86.884896 -4.7e-05 -0.000581 -1.2e-05 5.35261 -15.039526 1.495674 8.843891 34.727411 39.707744 24.413944 -24.423071 -32.469021
0.2088 71.1147 0.2036 -166.064371 84.060277 -161.36954 -3.887508 3.284683 0.0 5.074643 -4.808593 -0.545306 -12.791718 27.813561 -116.699147 2.604679 27.19562 97.083294 0.001122 0.0 0.004488 0.002662 -0.0 -0.000601 -59.83044 -86.721613 -81.631022 -1.856533 11.198963 -53.333819 62.761507 -82.771882 -11.317009 170.912796 -17.538368 143.615436 2.012828 -1.996497 -0.275312 -145.960912 -55.584626 122.086201 -152.10379 -18.556614 121.368658 -166.233694 -25.857171 119.148246 -125.644888 49.840238 115.274208 -85.802828 63.971249 77.831572 9.8e-05 0.063673 0.02071 -148.212822 -76.779636 -171.07862 -140.596211 -1.003123 -137.667089 -5.666904 -17.454937 -8.81351 155.809487 -5.55535 -162.266974 53.756316 88.387802 3.69727 143.113611 78.147623 153.866427 6.652959 28.910035 -1.759737 5.175753 5.019865 -1.016454 96.321964 12.7004 -88.62292 0.328456 0.529516 -0.187097 -170.255211 -44.904705 -100.389006 125.644528 49.84009 -115.274104 172.067653 -31.385506 -143.786328 0.014101 -1.32288 0.41766 -9.814253 -62.545842 9.183587 132.044656 -18.855216 129.579719 75.8156 -53.1098 76.037701 -179.999288 75.749459 0.0 166.11776 51.122448 61.903178 22.511339 33.359431 -105.042765 109.65995 24.712668 -16.396048 -0.002492 0.000183 -0.002492 4.294072 -15.723484 68.437198 31.700995 10.783385 -90.013376 32.850962 9.877471 24.283646
